<svg role="img" viewBox="0 0 24 24" width="22" height="22" xmlns="http://www.w3.org/2000/svg">
<title>WhatsApp</title>
<path fill="#25D366" d="M17.472 14.382c-.297-.149-1.758-.867-2.031-.967-.273-.099-.471-.148-.669.15-.198.297-.767.967-.94 1.166-.173.198-.347.223-.644.075-.297-.149-1.255-.463-2.39-1.475-.883-.788-1.48-1.761-1.653-2.059-.173-.297-.018-.458.13-.606.134-.133.298-.347.446-.52.149-.174.198-.298.298-.497.099-.198.05-.372-.025-.52-.075-.149-.669-1.611-.916-2.207-.242-.579-.487-.501-.669-.511-.173-.008-.372-.01-.571-.01-.198 0-.52.075-.792.372-.272.297-1.04 1.016-1.04 2.479 0 1.462 1.065 2.875 1.213 3.074.149.198 2.096 3.2 5.077 4.366.709.306 1.262.489 1.694.625.712.227 1.361.195 1.872.118.571-.085 1.758-.719 2.006-1.413.248-.694.248-1.288.173-1.413-.074-.124-.272-.198-.57-.347zm-5.421 7.617h-.001A9.87 9.87 0 0 1 3.1 19.29l-2.13.557.568-2.075A9.86 9.86 0 0 1 0 12.045C0 5.495 5.5 0 12.274 0c2.637 0 5.187.945 7.18 2.662 2.036 1.75 3.184 4.18 3.208 6.806.024 2.626-.966 5.102-2.828 6.915-.06.058-.122.112-.184.166l-.001.001c-.529.464-1.114.89-1.749 1.265-.547.322-1.14.596-1.765.813l-.001.001c-.368.127-.742.24-1.123.332A9.876 9.876 0 0 1 12.05 24zm8.075-18.932C18.15 2.21 15.322 1.273 12.273 1.273 6.412 1.273 1.273 6.412 1.273 12.045c0 1.743.455 3.425 1.317 4.924l.207.372-.341 1.244 1.274-.334.36.212a8.607 8.607 0 0 0 4.188 1.145c5.86 0 10.998-5.139 10.998-10.873 0-2.327-.916-4.475-2.572-6.195z"/>
</svg>
